<svg height='22px' width='22px'  fill="#000000" xmlns="http://www.w3.org/2000/svg" xmlns:xlink="http://www.w3.org/1999/xlink" version="1.1" x="0px" y="0px" viewBox="0 0 28.551 30.029" style="enable-background:new 0 0 28.551 30.029;" xml:space="preserve"><g><path d="M28.466,22.819L24.919,8.371c-0.305-1.242-1.36-2.123-2.612-2.231l-0.021-0.411c-0.082-1.626-1.45-2.895-3.104-2.808   l-3.74,0.188L15.42,2.773c-0.104-1.628-1.496-2.865-3.138-2.768c-0.789,0.05-1.513,0.402-2.034,0.996   C9.727,1.593,9.465,2.355,9.514,3.144C9.52,3.235,9.542,3.321,9.57,3.404L2.811,3.742c-1.63,0.082-2.889,1.475-2.807,3.104   l0.821,16.373c0.04,0.789,0.385,1.516,0.97,2.045c0.545,0.492,1.25,0.766,1.985,0.766c0.049,0,0.099-0.002,0.147-0.004l3.866-0.195   l0.478,1.945c0.325,1.326,1.506,2.254,2.872,2.254c0.236,0,0.475-0.029,0.707-0.086l14.446-3.547   C27.881,26.009,28.854,24.403,28.466,22.819z M11.482,3.02c-0.018-0.263,0.069-0.517,0.244-0.713   c0.174-0.198,0.414-0.316,0.678-0.332c0.557-0.032,1.014,0.379,1.047,0.922l0.02,0.311L11.453,3.31   C11.477,3.217,11.489,3.12,11.482,3.02z M3.829,24.001H3.78c-0.245,0-0.48-0.063-0.662-0.227c-0.194-0.178-0.31-0.406-0.323-0.668   L1.974,6.74C1.948,6.197,2.367,5.737,2.91,5.709l10.686-0.533l0.229,3.625c0.017,0.264-0.07,0.519-0.244,0.716   c-0.174,0.196-0.415,0.315-0.68,0.332c-0.258,0.016-0.517-0.069-0.713-0.244c-0.197-0.174-0.315-0.415-0.332-0.679   c-0.035-0.543-0.488-0.95-1.047-0.923c-0.543,0.034-0.955,0.503-0.923,1.046c0.05,0.789,0.403,1.512,0.996,2.033   c0.545,0.481,1.232,0.74,1.952,0.74c0.063,0,0.126-0.002,0.189-0.006c0.789-0.049,1.513-0.402,2.035-0.996   c0.521-0.594,0.781-1.354,0.732-2.142l-0.227-3.602l3.768-0.188c0.523,0,0.957,0.411,0.982,0.937l0.821,16.372   c0.027,0.543-0.392,0.98-0.936,1.008L3.829,24.001z M25.827,24.481l-14.448,3.547c-0.529,0.127-1.064-0.203-1.191-0.723   l-0.387-1.576l10.5-0.525c1.629-0.082,2.889-1.475,2.807-3.104L22.408,8.163c0.287,0.115,0.518,0.359,0.596,0.676l3.547,14.447   C26.68,23.817,26.355,24.352,25.827,24.481z"></path></g></svg>
